<svg width="14" height="14" viewBox="0 0 14 14" fill="none" xmlns="http://www.w3.org/2000/svg">
<path d="M13.7445 12.166L11.0346 9.52969C13.0623 6.89467 12.5094 3.16009 9.79973 1.18829C7.09004 -0.78351 3.24964 -0.245864 1.22196 2.38915C-0.805712 5.02416 -0.252831 8.75874 2.45685 10.7305C4.63349 12.3145 7.62306 12.3145 9.79973 10.7305L12.5108 13.3669C12.8515 13.6982 13.4038 13.6982 13.7445 13.3669C14.0852 13.0356 14.0852 12.4984 13.7445 12.1672L13.7445 12.166ZM6.15088 10.2217C3.74264 10.2217 1.79041 8.32326 1.79041 5.98139C1.79041 3.63951 3.74264 1.74107 6.15088 1.74107C8.55912 1.74107 10.5114 3.63951 10.5114 5.98139C10.5088 8.3222 8.55805 10.2192 6.15088 10.2217Z" fill="#B1FFC7"/>
</svg>
